<mxfile host="app.diagrams.net" modified="2023-04-11T11:10:52.592Z" agent="Mozilla/5.0 (Windows NT 10.0; Win64; x64) AppleWebKit/537.36 (KHTML, like Gecko) Chrome/112.0.0.0 Safari/537.36" etag="5-SCOaBQNUsvJPSH9exP" version="21.1.5" type="google">
  <diagram name="Page-1" id="xuZ9bypO9oL3cpcWR4Og">
    <mxGraphModel grid="1" page="1" gridSize="10" guides="1" tooltips="1" connect="1" arrows="1" fold="1" pageScale="1" pageWidth="850" pageHeight="1100" math="0" shadow="0">
      <root>
        <mxCell id="0" />
        <mxCell id="1" parent="0" />
        <mxCell id="qIUt4NWJC1UlJySX8_9B-8" value="" style="edgeStyle=orthogonalEdgeStyle;rounded=0;orthogonalLoop=1;jettySize=auto;html=1;" edge="1" parent="1" target="qIUt4NWJC1UlJySX8_9B-5">
          <mxGeometry relative="1" as="geometry">
            <mxPoint x="155" y="180" as="sourcePoint" />
          </mxGeometry>
        </mxCell>
        <mxCell id="qIUt4NWJC1UlJySX8_9B-7" value="" style="edgeStyle=orthogonalEdgeStyle;rounded=0;orthogonalLoop=1;jettySize=auto;html=1;" edge="1" parent="1" source="qIUt4NWJC1UlJySX8_9B-3">
          <mxGeometry relative="1" as="geometry">
            <mxPoint x="155" y="110" as="targetPoint" />
          </mxGeometry>
        </mxCell>
        <mxCell id="qIUt4NWJC1UlJySX8_9B-3" value="NEGOCIATION FOR FINANCIAL AGREEMENT&amp;nbsp;STARTS" style="rounded=1;whiteSpace=wrap;html=1;" vertex="1" parent="1">
          <mxGeometry x="90" y="10" width="130" height="70" as="geometry" />
        </mxCell>
        <mxCell id="qIUt4NWJC1UlJySX8_9B-20" value="" style="edgeStyle=orthogonalEdgeStyle;rounded=0;orthogonalLoop=1;jettySize=auto;html=1;" edge="1" parent="1">
          <mxGeometry relative="1" as="geometry">
            <mxPoint x="434.41058823529414" y="220" as="sourcePoint" />
            <mxPoint x="434.41058823529414" y="95" as="targetPoint" />
          </mxGeometry>
        </mxCell>
        <mxCell id="qIUt4NWJC1UlJySX8_9B-11" value="" style="edgeStyle=orthogonalEdgeStyle;rounded=0;orthogonalLoop=1;jettySize=auto;html=1;" edge="1" parent="1" source="qIUt4NWJC1UlJySX8_9B-5">
          <mxGeometry relative="1" as="geometry">
            <mxPoint x="155" y="340" as="targetPoint" />
          </mxGeometry>
        </mxCell>
        <mxCell id="qIUt4NWJC1UlJySX8_9B-15" value="" style="edgeStyle=orthogonalEdgeStyle;rounded=0;orthogonalLoop=1;jettySize=auto;html=1;" edge="1" parent="1" source="qIUt4NWJC1UlJySX8_9B-5" target="qIUt4NWJC1UlJySX8_9B-14">
          <mxGeometry relative="1" as="geometry" />
        </mxCell>
        <mxCell id="qIUt4NWJC1UlJySX8_9B-5" value="CONDITIONS ARE ACCEPTED BY THE BUYER" style="rounded=0;whiteSpace=wrap;html=1;" vertex="1" parent="1">
          <mxGeometry x="90" y="220" width="130" height="70" as="geometry" />
        </mxCell>
        <mxCell id="qIUt4NWJC1UlJySX8_9B-10" value="FINANCIER MAKES A PROPOSAL TO BUYER" style="shape=parallelogram;perimeter=parallelogramPerimeter;whiteSpace=wrap;html=1;fixedSize=1;" vertex="1" parent="1">
          <mxGeometry x="70" y="110" width="160" height="70" as="geometry" />
        </mxCell>
        <mxCell id="qIUt4NWJC1UlJySX8_9B-12" value="NO" style="text;html=1;align=center;verticalAlign=middle;resizable=0;points=[];autosize=1;strokeColor=none;fillColor=none;" vertex="1" parent="1">
          <mxGeometry x="150" y="300" width="40" height="30" as="geometry" />
        </mxCell>
        <mxCell id="qIUt4NWJC1UlJySX8_9B-14" value="" style="shape=waypoint;sketch=0;size=6;pointerEvents=1;points=[];fillColor=default;resizable=0;rotatable=0;perimeter=centerPerimeter;snapToPoint=1;rounded=0;" vertex="1" parent="1">
          <mxGeometry x="355" y="245" width="20" height="20" as="geometry" />
        </mxCell>
        <mxCell id="qIUt4NWJC1UlJySX8_9B-18" value="" style="edgeStyle=orthogonalEdgeStyle;rounded=0;orthogonalLoop=1;jettySize=auto;html=1;" edge="1" parent="1" source="qIUt4NWJC1UlJySX8_9B-16" target="qIUt4NWJC1UlJySX8_9B-17">
          <mxGeometry relative="1" as="geometry" />
        </mxCell>
        <mxCell id="qIUt4NWJC1UlJySX8_9B-16" value="COUNTER PROPOSAL IS MADE BY BUYER" style="rhombus;whiteSpace=wrap;html=1;" vertex="1" parent="1">
          <mxGeometry x="90" y="340" width="130" height="120" as="geometry" />
        </mxCell>
        <mxCell id="qIUt4NWJC1UlJySX8_9B-28" value="" style="edgeStyle=orthogonalEdgeStyle;rounded=0;orthogonalLoop=1;jettySize=auto;html=1;entryX=0.5;entryY=1;entryDx=0;entryDy=0;" edge="1" parent="1" source="qIUt4NWJC1UlJySX8_9B-17" target="qIUt4NWJC1UlJySX8_9B-22">
          <mxGeometry relative="1" as="geometry">
            <mxPoint x="360" y="540" as="targetPoint" />
          </mxGeometry>
        </mxCell>
        <mxCell id="qIUt4NWJC1UlJySX8_9B-31" value="" style="edgeStyle=orthogonalEdgeStyle;rounded=0;orthogonalLoop=1;jettySize=auto;html=1;" edge="1" parent="1" source="qIUt4NWJC1UlJySX8_9B-17" target="qIUt4NWJC1UlJySX8_9B-30">
          <mxGeometry relative="1" as="geometry" />
        </mxCell>
        <mxCell id="qIUt4NWJC1UlJySX8_9B-17" value="COUNTER PROPOSAL CONDITIONS ARE ACCEPTED BY THE FINANCIER" style="rounded=0;whiteSpace=wrap;html=1;" vertex="1" parent="1">
          <mxGeometry x="90" y="500" width="130" height="80" as="geometry" />
        </mxCell>
        <mxCell id="qIUt4NWJC1UlJySX8_9B-22" value="AGREED AMOUNT LOCKED" style="rounded=0;whiteSpace=wrap;html=1;" vertex="1" parent="1">
          <mxGeometry x="360" y="220" width="140" height="70" as="geometry" />
        </mxCell>
        <mxCell id="qIUt4NWJC1UlJySX8_9B-23" value="NEGOCIATION FOR FINANCIAL AGREEMENT ENDS" style="rounded=1;whiteSpace=wrap;html=1;" vertex="1" parent="1">
          <mxGeometry x="600" y="5" width="135" height="80" as="geometry" />
        </mxCell>
        <mxCell id="qIUt4NWJC1UlJySX8_9B-27" value="" style="edgeStyle=orthogonalEdgeStyle;rounded=0;orthogonalLoop=1;jettySize=auto;html=1;" edge="1" parent="1" source="qIUt4NWJC1UlJySX8_9B-24" target="qIUt4NWJC1UlJySX8_9B-23">
          <mxGeometry relative="1" as="geometry" />
        </mxCell>
        <mxCell id="qIUt4NWJC1UlJySX8_9B-24" value="CONFIRMATION OF THE SUCCESS OF THE TRADE" style="rhombus;whiteSpace=wrap;html=1;" vertex="1" parent="1">
          <mxGeometry x="370" y="-7.5" width="130" height="105" as="geometry" />
        </mxCell>
        <mxCell id="qIUt4NWJC1UlJySX8_9B-29" value="YES" style="text;html=1;align=center;verticalAlign=middle;resizable=0;points=[];autosize=1;strokeColor=none;fillColor=none;" vertex="1" parent="1">
          <mxGeometry x="275" y="535" width="50" height="30" as="geometry" />
        </mxCell>
        <mxCell id="qIUt4NWJC1UlJySX8_9B-33" style="edgeStyle=orthogonalEdgeStyle;rounded=0;orthogonalLoop=1;jettySize=auto;html=1;entryX=0.5;entryY=1;entryDx=0;entryDy=0;" edge="1" parent="1" source="qIUt4NWJC1UlJySX8_9B-30" target="qIUt4NWJC1UlJySX8_9B-23">
          <mxGeometry relative="1" as="geometry" />
        </mxCell>
        <mxCell id="qIUt4NWJC1UlJySX8_9B-30" value="TRADE IS CANCELLED" style="rounded=0;whiteSpace=wrap;html=1;" vertex="1" parent="1">
          <mxGeometry x="90" y="630" width="130" height="80" as="geometry" />
        </mxCell>
        <mxCell id="qIUt4NWJC1UlJySX8_9B-32" value="NO" style="text;html=1;align=center;verticalAlign=middle;resizable=0;points=[];autosize=1;strokeColor=none;fillColor=none;" vertex="1" parent="1">
          <mxGeometry x="150" y="585" width="40" height="30" as="geometry" />
        </mxCell>
      </root>
    </mxGraphModel>
  </diagram>
</mxfile>
